<?xml version="1.0" encoding="UTF-8"?>
<svg xmlns="http://www.w3.org/2000/svg" viewBox="0 0 709.93 406.8">
  <defs>
    <style>
      .cls-1, .cls-2 {
        fill: #1a1e1d;
      }

      .cls-2 {
        fill-rule: evenodd;
      }
    </style>
  </defs>
  <g id="Animal_Royale" data-name="Animal Royale">
    <g>
      <path class="cls-1" d="M412.95,386.89h-22.75v-.39c2.97-6.44,5.93-12.88,8.89-19.32,1.11-2.43,2.21-4.87,3.4-7.51-1.22-.44-2.32-.84-3.66-1.33,3.46-7.47,6.89-14.86,10.41-22.45-.89-.66-1.75-1.3-2.77-2.05,3.43-9.53,6.85-19.06,10.41-28.98,2.09,5.92,4.04,11.47,6,17.01,1.16,3.28,2.23,6.6,3.5,9.82,.65,1.64,.6,2.77-.92,3.61-.3,.17-.54,.48-.89,.81,3.91,7.86,7.8,15.69,11.77,23.67-1.12,.79-2.25,1.6-3.35,2.38-.03,.18-.11,.33-.07,.42,3.58,7.87,7.18,15.73,10.78,23.59,.12,.27,.35,.49,.53,.73v.39h-22.75v12.46l63.38,.48-42.41-163.06-53.03,2.56-39.85,159.48,63.38,.48v-12.78Z"/>
      <g>
        <path class="cls-1" d="M121.05,211.12l.9-4.78-2.53-4.16s-.05-.1-.08-.15l-2.04-.58-.68,5.09c-.17,1.24-1.21,2.16-2.45,2.28l-5.74,1.26c-1.47,.32-2.94-.56-3.28-1.97-.34-1.42,.58-2.83,2.06-3.15l4.23-.93,.52-3.88c.01-.09,.03-.18,.05-.27-.11-.95-.14-1.85-.15-2.71-3.03-1.08-4.66-4.07-4.66-4.07-1.74-2.82-3.46-3.91-4.89-4.21-2.12-.44-3.62,.87-3.62,.87,0,0-.37-2.02,1.32-3.01-3.4-.23-2.77,5.17-2.77,5.17,0,0-6.17-9.5,.29-13.26,4.54-2.64,8.95,.06,10.37,4.85,.1,.32,.2,.66,.31,1,.96,3.02,2.37,6.59,3.93,8.7,.97-5.9,4.16-9.32,6.21-10.96-.6-.17-.95-.26-.96-.26-3.74-1.45-7.06-3.56-9.37-6.36,0,0,1.32,.35,2.53-.01-1.17-.34-2.2-.94-2.32-.98,.1-.15,1.84-1.3,4.15-1.81,.07-1.18,.62-2.48,.62-2.48,.14-2.47-3.47-14.27-6.03-18.47,0,0,1.91,.4,2.28,.87-.98-1.59-2.17-2.73-2.17-2.73,0,0,11.47,2.65,21.64,12.46,0,0,7.37-1.84,7.84-10.82,0,0,1.31,1.05,1.58,2.7,0,0,.15-.61,.12-1.94,0,0,5.07,8.05,3.76,20.72,0,0,.5,1.67,.5,3.25,0,0,2.03,.63,3.63,1.97-.15,.02-1.01,.73-2,.89,0,0,1.52,.54,2.23,.46-1.61,1.63-4.02,2.85-6.88,3.64-1.5,.64-3.3,1.08-5.23,1.32,0,0-.12,.03-.29,.07l5.06,.13c.65,.02,1.26,.14,1.8,.35-.54-.74-.43-1.45,.1-.98,.69,.61,1.56,.4,2.18,.12-.04-.22-.09-.45-.17-.7-.18-.52,.36-.72,.36-.72l4.61-1.6s0,0,0,0l11.74-4.26c.32-.37,1.04-1.19,1.37-1.47,.11-.1,.31-.24,.55-.22,.15,.02,.27,.08,.4,.2,.1,.1,.28,.36,.38,.51l.85-.31c.36-.13,.76,.06,.9,.43l.86,2.36c.13,.37-.05,.78-.41,.91l.24,.66c.09,.26-.1,.57-.42,.68l-12.68,4.6c-.16,.06-.33,.06-.47,.02,.05,.12,.34,.82-.39,1.09l-.79,.29,.2,.55s.07,.25-.19,.42c-.07,.05-.44,.19-.94,.37,.11,.34,.29,.89,.51,1.54,.32,.95-.82,1.31-.82,1.31,0,0-2.71,.97-3.6,1.3-.03,.01-.05,.01-.08,.02l-.33,3.03s-.04,.87-.79,.83c-.76-.04-3.24-.19-3.24-.19,0,0-.64-.15-.52-.93,.05-.32,.12-1.01,.2-1.83l-3.71,3.77c-.56,.57-1.33,.84-2.09,.82-.67,.02-1.34-.19-1.88-.64l-3.84-3.22c-.58,3.14-1.5,6.37-2.97,8.42l1.28,2.1c.25,.41,.37,.87,.37,1.31,0,.18,0,.37-.04,.55l-1,5.27,50.59-1.34-31.08-120.94-39.12-.4-30.15,123.99,44.27-1.17c-.02-.22-.02-.45,.03-.68Z"/>
        <polygon class="cls-1" points="136.01 190.06 132.39 189.96 134.42 191.67 136.01 190.06"/>
        <path class="cls-1" d="M142.53,186.59c.06-.07,.12-.14,.18-.22-.14-.03-.27-.06-.39-.1,.08,.1,.15,.21,.22,.32Z"/>
        <path class="cls-1" d="M145.19,191.25c.51-.19,2.34-.87,2.83-1.02,.67-.21,.38-.68,.38-.68l-.36-.98c-1.26,.45-2.66,.93-2.66,.93l-.19,1.76Z"/>
      </g>
      <path class="cls-1" d="M238.6,88.03l31.95,1.94v122.67l-26.16,1.58-22.44-48.39c-3.5-7.31-6.25-14.51-8.25-21.6h-.75c.9,7.31,1.35,14.8,1.35,22.44l-.12,43.8-31.83-1.1V84.63l29.33,1.33,20.47,47.8c1.8,4.28,4.2,10.52,7.2,18.73h.45c-.8-8.44-1.2-15.13-1.2-20.08v-44.38Z"/>
      <path class="cls-1" d="M285.95,88.76l32.4,1.46v122.75l-32.4-.75V88.76Z"/>
      <path class="cls-1" d="M408.15,88.03h32.55l6.75,121.34h-29.7l-2.1-59.74h-.6c-.9,5.74-2.3,12.1-4.2,19.07l-7.95,30.04h-25.05l-7.8-30.04c-2.4-9.11-3.85-15.47-4.35-19.07h-.75l-3.02,64.59h-30.13l7.8-126.19,34.08-1.81,10.62,44.68c3.6,14.51,5.7,24.02,6.3,28.52h.45c.9-7.99,2.8-17.49,5.7-28.52l11.4-42.86Z"/>
      <path class="cls-1" d="M560.2,209.37V88.03l31.99,.73,.42,90.74,41.1-3.53v36l-73.5-2.6Z"/>
      <path class="cls-1" d="M89.05,328.27l32.27,78.53h-44.92l-27.18-68.88h-5.11l.34,63.1-44.46-1.98V233.83H55.35c17.7,0,31.56,3.95,41.56,11.83,10.01,7.89,15.01,19.8,15.01,35.73,0,21.75-7.63,37.38-22.87,46.88Zm-44.93-28.03h9.19c3.95,0,7.21-1.3,9.8-3.91,2.58-2.6,3.88-6.36,3.88-11.26,0-5.36-1.33-9-3.98-10.91-2.66-1.91-6.78-2.87-12.36-2.87h-6.54v28.95Z"/>
      <path class="cls-1" d="M179.49,403.48c-19.77,0-35.29-6.95-46.57-20.85-11.29-13.9-16.93-36.09-16.93-66.6,0-25.84,5.98-46.2,17.93-61.07,11.95-14.87,27.88-22.31,47.78-22.31s36.16,7.14,46.77,21.41c10.62,14.28,15.92,34.63,15.92,61.08,0,30.8-5.78,53.23-17.33,67.27-11.55,14.05-27.41,21.07-47.58,21.07Zm19.23-88.12c0-14.72-1.57-24.98-4.71-30.76-3.14-5.78-7.51-8.68-13.12-8.68-12.82,0-19.23,13.52-19.23,40.56,0,15.93,1.53,27.38,4.61,34.37,3.07,6.99,7.68,10.48,13.82,10.48s10.62-3.27,13.82-9.8c3.2-6.54,4.81-18.59,4.81-36.17Z"/>
      <path class="cls-1" d="M309.7,305.22c1.07-8.41,3.14-16.9,6.21-25.47l14.91-42.59h47.06l-47.75,105.7-.7,57.37-42.57-1.02v-55.67l-48.28-106.37,47.37-1.55,16.73,45.72c2.81,7.52,4.81,15.48,6.01,23.89h1Z"/>
      <path class="cls-1" d="M497.4,399.19V237.15l43.54-2.19-.27,124.34,54.89-2.09v45l-98.16-3.02Z"/>
      <path class="cls-1" d="M609.58,400.22V238.18l98.61-3.21-.45,42.88h-54.89v21.64l48.09-3.01v43.75l-48.09-2.43v22.76l57.09,2.41v41.5l-100.36-4.25Z"/>
      <g>
        <path class="cls-1" d="M491.93,208.14l2.18-4.73c.13-1.08,.81-2.03,1.85-2.41l4.42-1.6c-.66-1.95-.99-4.46-1.14-6.84-.12-.01-.25-.03-.38-.04l-11.05-2.33c-.5-.1-.97-.27-1.38-.49,.25,1.08,.4,1.89,.35,2.08l-3.59,.88c-.47-1.04,.69-1.66,.44-2.05-1.42-2.17-1.96-8.16-1.96-8.16-.73-.47-1.83-.09-2.04,.01-.19,.1-.69-.02-.58-.52,.17-.76,.46-.98,.46-.98l1.28-.31-.91-1.29s-2.96-11.47-3.47-14.21c-.51-2.74,1.03-6.71,1.03-6.71,1.37,5.6,3.6,9.46,3.6,9.46l.53,2.18-.35,.45,.52,.24-.35,.45,.52,.24-.35,.45,.52,.24-.35,.45,.52,.24-.35,.45,.52,.24-.35,.45,.52,.24-.35,.45,.52,.24-.35,.45,.52,.24-.35,.45,.52,.24-.35,.45,.52,.24-.35,.45,.52,.24,.55,2.25,1.41-.34s.37,.19-.09,.53c0,0-1.05,.84-.91,1.68,0,0,.54,1.94,1.12,4.12,.78-.58,2.02-.82,3.34-.55l3.66,.15c-5.56-1.51-6.52-5.45-6.84-8.43-.36-3.32-.46-6.25,.5-9.02,.1-.27,.2-.54,.32-.81-1.94-.99-3.35-2.91-3.58-5.24-.36-3.63,2.3-6.86,5.93-7.21,3.1-.3,5.91,1.59,6.88,4.41,1.39-.46,2.9-.78,4.51-.93,2.31-.21,4.76-.09,7.08,.5,.3-3.07,2.74-5.6,5.93-5.91,3.63-.36,6.86,2.3,7.21,5.93,.3,3.03-1.5,5.77-4.21,6.81,.5,.98,.9,2.08,1.19,3.3,1.3,5.49,.76,10.17-2.69,12.81,.14,.02,.27,.06,.41,.1l2.81,.95,.35-2.96c.18-1.56,1.68-2.67,3.35-2.47,1.67,.2,2.87,1.62,2.69,3.18l-.72,6.07c.03,.41-.02,.84-.16,1.25-.04,.12-.09,.24-.14,.35-.17,.4-.44,.75-.77,1.02-.64,.56-1.49,.83-2.33,.69-.01,0-.03,0-.04,0-.41-.05-.8-.17-1.14-.36l-2.52-.78c.78,1.73,1.42,3.66,1.59,5.61,.16,1.72,.13,3.26,0,4.6,.83-.85,1.38-2.13,1.38-2.13,1.67-4.01,4.69-10.79,8.76-11.21,4.05-.42,5.91,2.41,6.5,3.39,.8,1.32,1.48,4.85-1.4,5.59-1.19,.31-3.41-.02-3.93-3.49-.32-2.1-1.21-2.77-2.79-1.25-1.17,1.12-1.45,1.72-4.76,7.31-.72,1.21-2.34,3.54-4.19,4.44-.29,1.24-.63,2.14-.88,2.67l.18,.48,4.04,4.36c.29,.32,.49,.69,.61,1.08l31.52-.82-31.35-121.34-38.32-1.81-30.68,125.75,39.44-1.02c-.55-.83-.69-1.87-.27-2.8Z"/>
        <path class="cls-1" d="M511.36,207.61l-1.13-3.05c-1.44-.14-3-.36-4.54-.7-.26,.24-.57,.43-.92,.56l-5.15,1.87-2.05,4.45s-.03,.04-.04,.06l16.15-.42-1.48-1.6c-.19-.16-.36-.34-.5-.55l-.02-.02s0,0,0,0c-.13-.19-.24-.39-.32-.61Z"/>
      </g>
    </g>
  </g>
  <g id="super">
    <g>
      <path class="cls-2" d="M357.5,18.8h-1.21v7.89h.72c1.21,0,2.08-.33,2.61-.99,.54-.66,.8-1.73,.8-3.21,0-2.46-.98-3.69-2.94-3.69Z"/>
      <path class="cls-2" d="M409.88,19.83h-1.29v5.81h1.81c.78,0,1.42-.26,1.93-.78,.51-.52,.77-1.28,.77-2.26,0-1.08-.26-1.81-.79-2.19-.52-.38-1.33-.58-2.43-.58Z"/>
      <path class="cls-2" d="M240.34,0V59.22h229.25V0H240.34Zm56.88,23.16c.55,.45,1.64,1.08,3.28,1.89,.94,.47,1.71,.87,2.31,1.21,.6,.34,1.29,.82,2.05,1.42,.76,.61,1.37,1.24,1.81,1.89,.44,.65,.82,1.46,1.13,2.43,.31,.97,.46,2.04,.46,3.22,0,3.27-.99,5.94-2.96,8.01-1.97,2.07-4.74,3.11-8.31,3.11-4.05,0-7.62-.93-10.7-2.8l2.53-9.11c2.65,1.81,5.08,2.71,7.28,2.71,.62,0,1.11-.16,1.47-.49,.36-.33,.54-.75,.54-1.28,0-.62-.22-1.11-.66-1.47-.44-.36-1.12-.74-2.03-1.14-1.15-.53-2.04-.94-2.65-1.24-.62-.29-1.39-.76-2.31-1.4-.92-.64-1.62-1.28-2.09-1.91-.47-.64-.88-1.46-1.25-2.48s-.54-2.14-.54-3.39c0-3.49,1.05-6.25,3.14-8.29,2.09-2.04,4.8-3.06,8.12-3.06,5.04,0,8.82,2.41,11.34,7.24l-6.8,4.91c-1.37-2.09-2.86-3.13-4.46-3.13-1.02,0-1.53,.48-1.53,1.45,0,.69,.27,1.25,.83,1.7Zm42.05,10.46c0,2.77-.36,5.04-1.09,6.83-1.56,3.94-5.07,5.9-10.54,5.9-4.61,0-7.82-1.54-9.61-4.61-1.15-2-1.73-4.72-1.73-8.16V12.31l8.71-.53,.02,20c0,1.11,.01,1.95,.04,2.54,.08,1.04,.32,1.87,.72,2.47,.4,.6,1.1,.9,2.09,.9,1.61,0,2.48-1.06,2.61-3.18,.03-.55,.04-1.44,.04-2.68l.1-20.39,8.62-.45v22.63Zm27.1-2.73c-2.02,2.25-4.79,3.37-8.31,3.37h-1.77l.23,11.37-8.92-.39V11.33h10.94c3.38,0,6.03,.95,7.96,2.86,1.93,1.91,2.9,4.52,2.9,7.84,0,3.66-1.01,6.61-3.04,8.86Zm27.36,15.01l-20.15-.43V12.31l19.77-.39v8.98l-11.08-.48v4.43l9.71-.41v8.66l-9.71-.4v4.66l11.46-.35v8.89Zm20.45-.43l-4.59-12.27h-1.01l.1,13.26-8.79,.33V12.31h10.9c3.49,0,6.21,.79,8.19,2.38,1.97,1.58,2.96,3.97,2.96,7.17,0,4.37-1.5,7.5-4.5,9.41l6.19,14.21h-9.45Z"/>
    </g>
  </g>
</svg>